<svg xmlns="http://www.w3.org/2000/svg" viewBox="0 0 34.43 36.1"><defs><style>.cls-1{fill:#fff;}</style></defs><title>favicon</title><g id="Layer_2" data-name="Layer 2"><g id="Layer_1-2" data-name="Layer 1"><path class="cls-1" d="M10.76,33.16c-.8-4.06,6-5.44,8.12-6.4,1.33-.59,2.69-1.11,4.05-1.6S25.77,24,27.2,23.44a4.4,4.4,0,0,1,3.55-.21,5.12,5.12,0,0,1,2.94,3.82l.64,3.23a5.09,5.09,0,0,1-.6,3.59,4.11,4.11,0,0,1-3.51,2L19.77,36C17.39,36,11.52,37.05,10.76,33.16Z"/><path class="cls-1" d="M7,27.14c-2.48-3.31,3-7.5,4.53-9.3.93-1.12,1.93-2.17,2.94-3.21s2-2.31,3.09-3.42a4.37,4.37,0,0,1,3.1-1.73A5.16,5.16,0,0,1,25,11.63l2,2.63a5,5,0,0,1,1,3.49,4.1,4.1,0,0,1-2.29,3.32l-9.36,4.64C14.2,26.77,9.4,30.3,7,27.14Z"/><path class="cls-1" d="M1.71,22.3c-3.64-1.95-.43-8.06.2-10.34.38-1.41.84-2.78,1.32-4.15s.87-2.95,1.36-4.4A4.46,4.46,0,0,1,6.68.53a5.2,5.2,0,0,1,4.83.14L14.4,2.22A5.06,5.06,0,0,1,16.8,5a4.1,4.1,0,0,1-.68,4L9.58,17.08C8.08,18.94,5.21,24.17,1.71,22.3Z"/></g></g></svg>